<svg xmlns="http://www.w3.org/2000/svg" width="1640" height="624" viewBox="0 0 1640 624">
  <rect width="1640" height="624" fill="#FAF8F6"/>
  <line x1="225.8" y1="0" x2="225.8" y2="624" stroke="#E4DEDA" stroke-width="1" opacity="0.55"/><line x1="344.7" y1="0" x2="344.7" y2="624" stroke="#E4DEDA" stroke-width="1" opacity="0.55"/><line x1="463.5" y1="0" x2="463.5" y2="624" stroke="#E4DEDA" stroke-width="1" opacity="0.55"/><line x1="582.3" y1="0" x2="582.3" y2="624" stroke="#E4DEDA" stroke-width="1" opacity="0.55"/><line x1="701.2" y1="0" x2="701.2" y2="624" stroke="#E4DEDA" stroke-width="1" opacity="0.55"/><line x1="820.0" y1="0" x2="820.0" y2="624" stroke="#E4DEDA" stroke-width="1" opacity="0.55"/><line x1="938.8" y1="0" x2="938.8" y2="624" stroke="#E4DEDA" stroke-width="1" opacity="0.55"/><line x1="1057.7" y1="0" x2="1057.7" y2="624" stroke="#E4DEDA" stroke-width="1" opacity="0.55"/><line x1="1176.5" y1="0" x2="1176.5" y2="624" stroke="#E4DEDA" stroke-width="1" opacity="0.55"/><line x1="1295.3" y1="0" x2="1295.3" y2="624" stroke="#E4DEDA" stroke-width="1" opacity="0.55"/><line x1="1414.2" y1="0" x2="1414.2" y2="624" stroke="#E4DEDA" stroke-width="1" opacity="0.55"/>
  <rect x="0" y="0" width="1640" height="10" fill="#C4396A"/>

  <text x="820" y="227.7" text-anchor="middle" font-family="Segoe UI, Helvetica Neue, Arial, sans-serif" font-size="78" font-weight="600" letter-spacing="-1.95" fill="#292522">Une journée de tournage par mois.</text>
  <text x="820" y="313.5" text-anchor="middle" font-family="Segoe UI, Helvetica Neue, Arial, sans-serif" font-size="66.3" font-weight="500" letter-spacing="-1.56" fill="#C4396A">Vos réseaux tournent sans vous.</text>

  <g transform="translate(820, 0)"><rect x="-398.6" y="376.5" width="291.5" height="57.2" rx="28.6" fill="none" stroke="#C4396A" stroke-width="2" opacity="0.55"/><text x="-252.9" y="414.5" text-anchor="middle" font-family="Segoe UI, Helvetica Neue, Arial, sans-serif" font-size="26" font-weight="600" fill="#6B6560">8 vidéos par mois</text><rect x="-83.7" y="376.5" width="263.9" height="57.2" rx="28.6" fill="none" stroke="#C4396A" stroke-width="2" opacity="0.55"/><text x="48.2" y="414.5" text-anchor="middle" font-family="Segoe UI, Helvetica Neue, Arial, sans-serif" font-size="26" font-weight="600" fill="#6B6560">sans engagement</text><rect x="203.6" y="376.5" width="195.0" height="57.2" rx="28.6" fill="none" stroke="#C4396A" stroke-width="2" opacity="0.55"/><text x="301.1" y="414.5" text-anchor="middle" font-family="Segoe UI, Helvetica Neue, Arial, sans-serif" font-size="26" font-weight="600" fill="#6B6560">890 €/mois</text></g>

  <text x="1533" y="587" text-anchor="end" font-family="Segoe UI, Helvetica Neue, Arial, sans-serif" font-size="26" font-weight="600" letter-spacing="1.6" fill="#6B6560">elieageron.com</text>
</svg>